<svg width="22" height="22" viewBox="0 0 22 22" fill="none" xmlns="http://www.w3.org/2000/svg">
<path d="M17.8024 15.0388C16.6967 14.8453 15.6413 14.4823 14.672 13.9622C14.198 13.702 13.5507 13.7513 13.1877 14.0134L10.8887 15.1908C8.75383 13.5215 7.55709 11.8174 6.72635 9.26307L8.56038 7.5458C9.0145 7.22745 9.25186 6.68782 9.17837 6.12965C9.01798 5.03568 9.0345 3.92018 9.22814 2.81403C9.36808 2.01494 8.83179 1.25104 8.03275 1.11115L4.71617 0.530546C3.91713 0.390663 3.15322 0.926957 3.01334 1.726C1.40991 10.8852 7.55684 19.641 16.716 21.2444C17.515 21.3843 18.2789 20.848 18.4188 20.0489L18.9978 16.7416C19.1376 15.9426 18.6013 15.1787 17.8024 15.0388Z" fill="white"/>
</svg>
