<svg width="141" height="142" viewBox="0 0 141 142" fill="none" xmlns="http://www.w3.org/2000/svg">
<g filter="url(#filter0_d)">
<circle cx="70.4083" cy="70.6505" r="41.9308" fill="white"/>
</g>
<path d="M56.0803 81.1111C52.9155 81.1111 50.3418 83.6848 50.3418 86.8496C50.3418 90.0144 52.9155 92.5881 56.0803 92.5881C59.2451 92.5881 61.8188 90.0144 61.8188 86.8496C61.8188 83.6848 59.245 81.1111 56.0803 81.1111ZM56.0803 90.6752C53.9704 90.6752 52.2547 88.9594 52.2547 86.8496C52.2547 84.7397 53.9705 83.024 56.0803 83.024C58.1901 83.024 59.9059 84.7398 59.9059 86.8496C59.9059 88.9594 58.1901 90.6752 56.0803 90.6752Z" fill="#65C466"/>
<path d="M88.5989 81.1111C85.4341 81.1111 82.8604 83.6848 82.8604 86.8496C82.8604 90.0144 85.4341 92.5881 88.5989 92.5881C91.7637 92.5881 94.3374 90.0144 94.3374 86.8496C94.3374 83.6848 91.7637 81.1111 88.5989 81.1111ZM88.5989 90.6752C86.489 90.6752 84.7732 88.9594 84.7732 86.8496C84.7732 84.7397 86.4891 83.024 88.5989 83.024C90.7088 83.024 92.4245 84.7398 92.4245 86.8496C92.4245 88.9594 90.7088 90.6752 88.5989 90.6752Z" fill="#65C466"/>
<path d="M99.9242 75.8116L91.3165 62.4217C91.1405 62.1481 90.8373 61.9827 90.5121 61.9827H79.9915C79.4626 61.9827 79.0352 62.4111 79.0352 62.939V86.8495C79.0352 87.3784 79.4626 87.8058 79.9915 87.8058H83.8172V85.893H80.9479V63.8955H89.9899L98.1634 76.6101V85.8932H93.3813V87.806H99.1198C99.6487 87.806 100.076 87.3785 100.076 86.8496V76.3289C100.076 76.1462 100.024 75.9655 99.9242 75.8116Z" fill="#65C466"/>
<path d="M84.7731 74.4161V67.7212H92.4245V65.8083H83.8167C83.2878 65.8083 82.8604 66.2368 82.8604 66.7647V75.3725C82.8604 75.9014 83.2878 76.3289 83.8167 76.3289H98.163V74.416H84.7731V74.4161Z" fill="#65C466"/>
<path d="M79.9917 55.325H43.6478C43.1199 55.325 42.6914 55.7534 42.6914 56.2813V86.8867C42.6914 87.4157 43.1199 87.8431 43.6478 87.8431H51.2992V85.9303H44.6043V57.2377H79.0353V85.9303H60.8633V87.8431H79.9917C80.5206 87.8431 80.9481 87.4157 80.9481 86.8867V56.2813C80.9481 55.7534 80.5206 55.325 79.9917 55.325Z" fill="#65C466"/>
<path d="M49.386 82.0671H43.6475V83.98H49.386V82.0671Z" fill="#65C466"/>
<path d="M79.0355 82.0671H62.7764V83.98H79.0355V82.0671Z" fill="#65C466"/>
<path d="M99.1206 82.0671H95.2949V83.98H99.1206V82.0671Z" fill="#65C466"/>
<path d="M79.9913 59.1133H46.5166V61.0262H79.9913V59.1133Z" fill="#65C466"/>
<path d="M57.0389 85.8926H55.126V87.8055H57.0389V85.8926Z" fill="#65C466"/>
<path d="M89.5555 85.8926H87.6426V87.8055H89.5555V85.8926Z" fill="#65C466"/>
<path d="M59.9065 51.4619H46.5166V53.3748H59.9065V51.4619Z" fill="#65C466"/>
<path d="M44.6043 51.4619H42.6914V53.3748H44.6043V51.4619Z" fill="#65C466"/>
<defs>
<filter id="filter0_d" x="0.0499001" y="0.292088" width="140.717" height="140.717" filterUnits="userSpaceOnUse" color-interpolation-filters="sRGB">
<feFlood flood-opacity="0" result="BackgroundImageFix"/>
<feColorMatrix in="SourceAlpha" type="matrix" values="0 0 0 0 0 0 0 0 0 0 0 0 0 0 0 0 0 0 127 0"/>
<feOffset/>
<feGaussianBlur stdDeviation="14.2138"/>
<feColorMatrix type="matrix" values="0 0 0 0 0.870833 0 0 0 0 0.870833 0 0 0 0 0.870833 0 0 0 1 0"/>
<feBlend mode="normal" in2="BackgroundImageFix" result="effect1_dropShadow"/>
<feBlend mode="normal" in="SourceGraphic" in2="effect1_dropShadow" result="shape"/>
</filter>
</defs>
</svg>
