<svg width="142" height="142" viewBox="0 0 142 142" fill="none" xmlns="http://www.w3.org/2000/svg">
<g filter="url(#filter0_d)">
<circle cx="70.9933" cy="70.6505" r="41.9308" fill="white"/>
</g>
<path d="M94.8673 51.4619H52.489C50.4538 51.4619 48.804 53.1118 48.804 55.147V84.6275H44.1976C43.6889 84.6275 43.2764 85.04 43.2764 85.5488C43.2764 87.584 44.9262 89.2339 46.9614 89.2339H73.6782V100.289C73.6783 100.798 74.0908 101.21 74.5997 101.21C74.8439 101.21 75.078 101.113 75.2508 100.94L80.127 96.0641L85.0033 100.94C85.176 101.113 85.4103 101.21 85.6546 101.21C85.7758 101.211 85.8957 101.187 86.0075 101.14C86.3517 100.998 86.576 100.662 86.5759 100.289V89.2339H89.3397C91.3749 89.2339 93.0248 87.584 93.0248 85.5488V56.0682H97.6311C98.1399 56.0682 98.5524 55.6558 98.5524 55.147C98.5524 53.1118 96.9025 51.4619 94.8673 51.4619ZM91.1822 55.147V84.6275H87.4972V86.4701H90.9344C90.6054 87.0399 89.9976 87.391 89.3397 87.3913H86.5759V86.4701H84.7334V98.0651L80.7784 94.1101C80.4186 93.7505 79.8355 93.7505 79.4757 94.1101L75.5207 98.0651V86.4701H73.6782V87.3913H46.9614C46.3035 87.391 45.6957 87.0399 45.3667 86.4701H49.7252H72.7569V84.6275H50.6465V55.147C50.6465 54.1293 51.4714 53.3044 52.489 53.3044H91.6945C91.3629 53.8622 91.186 54.4982 91.1822 55.147ZM93.2726 54.2257C93.7823 53.345 94.9095 53.0442 95.7903 53.554C96.0691 53.7153 96.3007 53.947 96.462 54.2257H93.2726Z" fill="#65C466"/>
<path d="M88.8114 80.2927L87.6312 78.1784L88.816 76.066C89.0656 75.6226 88.9087 75.0608 88.4654 74.8112C88.4431 74.7986 88.4202 74.7869 88.3968 74.7762L86.1977 73.7692L85.914 71.3647C85.854 70.8595 85.3956 70.4986 84.8904 70.5586C84.867 70.5614 84.8436 70.5651 84.8204 70.5697L82.4454 71.0404L80.8028 69.2615C80.4351 68.888 79.8343 68.8833 79.4608 69.251C79.4573 69.2545 79.4538 69.258 79.4504 69.2615L77.8077 71.0404L75.4327 70.5697C74.9336 70.471 74.4489 70.7956 74.3502 71.2947C74.3456 71.3179 74.3419 71.3412 74.3392 71.3647L74.0554 73.7692L71.8564 74.778C71.3938 74.9898 71.1904 75.5366 71.4022 75.9992C71.4129 76.0225 71.4245 76.0455 71.4372 76.0678L72.6219 78.1784L71.4372 80.2909C71.1875 80.7342 71.3445 81.296 71.7877 81.5456C71.8101 81.5582 71.833 81.5699 71.8564 81.5807L74.0554 82.5894L74.3392 84.9958C74.3992 85.501 74.8575 85.8619 75.3627 85.8019C75.3862 85.7991 75.4096 85.7955 75.4327 85.7908L77.8077 85.3201L79.4504 87.099C79.796 87.4725 80.3788 87.4951 80.7522 87.1496C80.7697 87.1334 80.7865 87.1165 80.8028 87.099L82.4454 85.3201L84.8204 85.7908C85.0722 85.8423 85.3339 85.7847 85.5409 85.6324C85.7468 85.4806 85.8802 85.2499 85.9094 84.9958L86.1931 82.5913L88.3922 81.5825C88.8548 81.3707 89.0581 80.8239 88.8464 80.3614C88.8357 80.338 88.8239 80.3151 88.8114 80.2927ZM85.7721 78.628L86.7201 80.3194L84.9586 81.1274C84.6666 81.2614 84.4655 81.5379 84.428 81.857L84.2013 83.7852L82.2971 83.4084C81.9833 83.3433 81.6584 83.4483 81.4421 83.6848L80.1266 85.111L78.811 83.6867C78.6367 83.4982 78.3916 83.3909 78.1348 83.3909C78.0747 83.3906 78.0148 83.3968 77.9561 83.4094L76.0518 83.7862L75.8252 81.858C75.7876 81.5389 75.5866 81.2624 75.2945 81.1283L73.5331 80.3204L74.4811 78.6289C74.6395 78.3479 74.6433 78.0067 74.4811 77.7279V77.7316L73.5331 76.0402L75.2945 75.2322C75.5866 75.0982 75.7876 74.8217 75.8252 74.5026L76.0518 72.5744L77.9561 72.9511C78.2698 73.0155 78.5943 72.9106 78.811 72.6748L80.1266 71.2459L81.4421 72.6702C81.6583 72.9068 81.9833 73.0118 82.2971 72.9465L84.2013 72.5697L84.428 74.498C84.4655 74.8171 84.6666 75.0936 84.9586 75.2276L86.7201 76.0355L85.7721 77.727C85.6152 78.0068 85.6152 78.3482 85.7721 78.628Z" fill="#65C466"/>
<path d="M80.1278 73.5725C77.5839 73.5725 75.5215 75.6349 75.5215 78.1788C75.5245 80.7215 77.5851 82.7821 80.1278 82.7852C82.6718 82.7852 84.7342 80.7228 84.7342 78.1788C84.7342 75.6349 82.6718 73.5725 80.1278 73.5725ZM80.1278 80.9426C78.6014 80.9426 77.364 79.7053 77.364 78.1788C77.364 76.6524 78.6014 75.415 80.1278 75.415C81.6542 75.415 82.8916 76.6524 82.8916 78.1788C82.8916 79.7053 81.6542 80.9426 80.1278 80.9426Z" fill="#65C466"/>
<path d="M78.2852 56.9895H63.5449V58.832H78.2852V56.9895Z" fill="#65C466"/>
<path d="M87.4967 62.5168H54.3311V64.3594H87.4967V62.5168Z" fill="#65C466"/>
<path d="M87.4967 66.2021H54.3311V68.0447H87.4967V66.2021Z" fill="#65C466"/>
<path d="M67.2294 78.1787H55.2529V80.0212H67.2294V78.1787Z" fill="#65C466"/>
<defs>
<filter id="filter0_d" x="0.634861" y="0.292088" width="140.717" height="140.717" filterUnits="userSpaceOnUse" color-interpolation-filters="sRGB">
<feFlood flood-opacity="0" result="BackgroundImageFix"/>
<feColorMatrix in="SourceAlpha" type="matrix" values="0 0 0 0 0 0 0 0 0 0 0 0 0 0 0 0 0 0 127 0"/>
<feOffset/>
<feGaussianBlur stdDeviation="14.2138"/>
<feColorMatrix type="matrix" values="0 0 0 0 0.870833 0 0 0 0 0.870833 0 0 0 0 0.870833 0 0 0 1 0"/>
<feBlend mode="normal" in2="BackgroundImageFix" result="effect1_dropShadow"/>
<feBlend mode="normal" in="SourceGraphic" in2="effect1_dropShadow" result="shape"/>
</filter>
</defs>
</svg>
