<svg width="141" height="142" viewBox="0 0 141 142" fill="none" xmlns="http://www.w3.org/2000/svg">
<g filter="url(#filter0_d)">
<circle cx="70.5792" cy="70.6505" r="41.9308" fill="white"/>
</g>
<g clip-path="url(#clip0)">
<path d="M71.2905 67.593C74.4131 67.593 76.9536 65.0524 76.9536 61.9297C76.9536 58.8069 74.4131 56.2664 71.2905 56.2664C68.1676 56.2664 65.627 58.8069 65.627 61.9297C65.627 65.0524 68.1676 67.593 71.2905 67.593ZM71.2905 59.098C72.8517 59.098 74.1219 60.3683 74.1219 61.9297C74.1219 63.4911 72.8517 64.7613 71.2905 64.7613C69.729 64.7613 68.4586 63.4911 68.4586 61.9297C68.4586 60.3683 69.729 59.098 71.2905 59.098Z" fill="#65C466"/>
<path d="M89.3046 76.9191H79.8288C84.2535 72.6956 88.2794 68.5558 88.2794 61.3449C88.2794 51.6293 80.9841 44.355 71.2897 44.355C61.5756 44.355 54.2995 51.6509 54.2995 61.3449C54.2995 68.5558 58.3256 72.6956 62.7503 76.9191H53.2744L48.0967 92.682H94.4823L89.3046 76.9191ZM57.1312 61.3449C57.1312 53.1411 63.0857 47.1866 71.2897 47.1866C79.4935 47.1866 85.4478 53.1411 85.4478 61.3449C85.4478 70.5231 77.7007 73.7738 71.2897 81.6784C69.363 79.303 67.3025 77.3423 65.2988 75.4359C60.7355 71.094 57.1312 67.6643 57.1312 61.3449ZM53.1545 86.3579H63.3608V83.5263H54.0846L55.3248 79.7507H65.6262V79.6871C69.3872 83.4167 70.4047 85.286 71.2897 86.4006C72.1966 85.2583 73.1808 83.4279 76.9528 79.6873V79.7507H87.2543L88.4945 83.5263H79.2181V86.3579H89.4245L90.5716 89.8503H52.0074L53.1545 86.3579Z" fill="#65C466"/>
</g>
<defs>
<filter id="filter0_d" x="0.220798" y="0.292088" width="140.717" height="140.717" filterUnits="userSpaceOnUse" color-interpolation-filters="sRGB">
<feFlood flood-opacity="0" result="BackgroundImageFix"/>
<feColorMatrix in="SourceAlpha" type="matrix" values="0 0 0 0 0 0 0 0 0 0 0 0 0 0 0 0 0 0 127 0"/>
<feOffset/>
<feGaussianBlur stdDeviation="14.2138"/>
<feColorMatrix type="matrix" values="0 0 0 0 0.870833 0 0 0 0 0.870833 0 0 0 0 0.870833 0 0 0 1 0"/>
<feBlend mode="normal" in2="BackgroundImageFix" result="effect1_dropShadow"/>
<feBlend mode="normal" in="SourceGraphic" in2="effect1_dropShadow" result="shape"/>
</filter>
<clipPath id="clip0">
<rect width="48.327" height="48.327" fill="white" transform="translate(47.126 44.355)"/>
</clipPath>
</defs>
</svg>
