<svg width="56" height="51" viewBox="0 0 56 51" fill="none" xmlns="http://www.w3.org/2000/svg">
<path d="M51.8673 0.461914H9.48903C7.45384 0.461914 5.80397 2.11179 5.80397 4.14698V33.6275H1.19763C0.688864 33.6275 0.276367 34.04 0.276367 34.5488C0.276367 36.584 1.92624 38.2339 3.96143 38.2339H30.6782V49.2891C30.6783 49.7978 31.0908 50.2102 31.5997 50.2101C31.8439 50.2101 32.078 50.113 32.2508 49.9404L37.127 45.0641L42.0033 49.9404C42.176 50.1131 42.4103 50.2103 42.6546 50.2103C42.7758 50.2107 42.8957 50.1869 43.0075 50.1403C43.3517 49.9976 43.576 49.6616 43.5759 49.2891V38.2339H46.3397C48.3749 38.2339 50.0248 36.584 50.0248 34.5488V5.06825H54.6311C55.1399 5.06825 55.5524 4.65575 55.5524 4.14698C55.5524 2.11179 53.9025 0.461914 51.8673 0.461914ZM48.1822 4.14698V33.6275H44.4972V35.4701H47.9344C47.6054 36.0399 46.9976 36.391 46.3397 36.3913H43.5759V35.4701H41.7334V47.0651L37.7784 43.1101C37.4186 42.7505 36.8355 42.7505 36.4757 43.1101L32.5207 47.0651V35.4701H30.6782V36.3913H3.96143C3.30353 36.391 2.69573 36.0399 2.36672 35.4701H6.72523H29.7569V33.6275H7.6465V4.14698C7.6465 3.12933 8.47138 2.30445 9.48903 2.30445H48.6945C48.3629 2.86216 48.186 3.49818 48.1822 4.14698ZM50.2726 3.22571C50.7823 2.34498 51.9095 2.04419 52.7903 2.554C53.0691 2.71533 53.3007 2.94703 53.462 3.22571H50.2726Z" fill="#65C466"/>
<path d="M45.8114 29.2927L44.6312 27.1784L45.816 25.066C46.0656 24.6226 45.9087 24.0608 45.4654 23.8112C45.4431 23.7986 45.4202 23.7869 45.3968 23.7762L43.1977 22.7692L42.914 20.3647C42.854 19.8595 42.3956 19.4986 41.8904 19.5586C41.867 19.5614 41.8436 19.5651 41.8204 19.5697L39.4454 20.0404L37.8028 18.2615C37.4351 17.888 36.8343 17.8833 36.4608 18.251C36.4573 18.2545 36.4538 18.258 36.4504 18.2615L34.8077 20.0404L32.4327 19.5697C31.9336 19.471 31.4489 19.7956 31.3502 20.2947C31.3456 20.3179 31.3419 20.3412 31.3392 20.3647L31.0554 22.7692L28.8564 23.778C28.3938 23.9898 28.1904 24.5366 28.4022 24.9992C28.4129 25.0225 28.4245 25.0455 28.4372 25.0678L29.6219 27.1784L28.4372 29.2909C28.1875 29.7342 28.3445 30.296 28.7877 30.5456C28.8101 30.5582 28.833 30.5699 28.8564 30.5807L31.0554 31.5894L31.3392 33.9958C31.3992 34.501 31.8575 34.8619 32.3627 34.8019C32.3862 34.7991 32.4096 34.7955 32.4327 34.7908L34.8077 34.3201L36.4504 36.099C36.796 36.4725 37.3788 36.4951 37.7522 36.1496C37.7697 36.1334 37.7865 36.1165 37.8028 36.099L39.4454 34.3201L41.8204 34.7908C42.0722 34.8423 42.3339 34.7847 42.5409 34.6324C42.7468 34.4806 42.8802 34.2499 42.9094 33.9958L43.1931 31.5913L45.3922 30.5825C45.8548 30.3707 46.0581 29.8239 45.8464 29.3614C45.8357 29.338 45.8239 29.3151 45.8114 29.2927ZM42.7721 27.628L43.7201 29.3194L41.9586 30.1274C41.6666 30.2614 41.4655 30.5379 41.428 30.857L41.2013 32.7852L39.2971 32.4084C38.9833 32.3433 38.6584 32.4483 38.4421 32.6848L37.1266 34.111L35.811 32.6867C35.6367 32.4982 35.3916 32.3909 35.1348 32.3909C35.0747 32.3906 35.0148 32.3968 34.9561 32.4094L33.0518 32.7862L32.8252 30.858C32.7876 30.5389 32.5866 30.2624 32.2945 30.1283L30.5331 29.3204L31.4811 27.6289C31.6395 27.3479 31.6433 27.0067 31.4811 26.7279V26.7316L30.5331 25.0402L32.2945 24.2322C32.5866 24.0982 32.7876 23.8217 32.8252 23.5026L33.0518 21.5744L34.9561 21.9511C35.2698 22.0155 35.5943 21.9106 35.811 21.6748L37.1266 20.2459L38.4421 21.6702C38.6583 21.9068 38.9833 22.0118 39.2971 21.9465L41.2013 21.5697L41.428 23.498C41.4655 23.8171 41.6666 24.0936 41.9586 24.2276L43.7201 25.0355L42.7721 26.727C42.6152 27.0068 42.6152 27.3482 42.7721 27.628Z" fill="#65C466"/>
<path d="M37.1278 22.5725C34.5839 22.5725 32.5215 24.6349 32.5215 27.1788C32.5245 29.7215 34.5851 31.7821 37.1278 31.7852C39.6718 31.7852 41.7342 29.7228 41.7342 27.1788C41.7342 24.6349 39.6718 22.5725 37.1278 22.5725ZM37.1278 29.9426C35.6014 29.9426 34.364 28.7053 34.364 27.1788C34.364 25.6524 35.6014 24.415 37.1278 24.415C38.6542 24.415 39.8916 25.6524 39.8916 27.1788C39.8916 28.7053 38.6542 29.9426 37.1278 29.9426Z" fill="#65C466"/>
<path d="M35.2852 5.9895H20.5449V7.83204H35.2852V5.9895Z" fill="#65C466"/>
<path d="M44.4967 11.5168H11.3311V13.3594H44.4967V11.5168Z" fill="#65C466"/>
<path d="M44.4967 15.2021H11.3311V17.0447H44.4967V15.2021Z" fill="#65C466"/>
<path d="M24.2294 27.1787H12.2529V29.0212H24.2294V27.1787Z" fill="#65C466"/>
</svg>
