<svg width="59" height="58" viewBox="0 0 59 58" fill="none" xmlns="http://www.w3.org/2000/svg">
<path d="M29.4458 0.487061C13.6628 0.487061 0.868164 13.2817 0.868164 29.0647C0.868164 44.8476 13.6628 57.6423 29.4458 57.6423C45.2288 57.6423 58.0234 44.8476 58.0234 29.0647C58.0234 13.2817 45.2289 0.487061 29.4458 0.487061ZM43.2095 30.4309C43.162 30.4837 43.1117 30.5339 43.059 30.5814L22.6463 48.9527C21.7938 49.6903 20.5047 49.5973 19.7671 48.7447C19.0499 47.9159 19.1154 46.6688 19.9152 45.9194L38.6417 29.0648L19.9152 12.21C19.0924 11.4393 19.0503 10.1476 19.821 9.3248C20.5704 8.525 21.8176 8.45958 22.6463 9.17673L43.059 27.5481C43.8966 28.3025 43.9639 29.5933 43.2095 30.4309Z" fill="#65C466"/>
</svg>
