<svg width="70" height="48" viewBox="0 0 70 48" fill="none" xmlns="http://www.w3.org/2000/svg">
<path d="M46.3291 24.0967L69.5664 38.787V8.78613L46.3291 24.0967Z" fill="#65C466"/>
<path d="M0.639648 8.78613V38.787L23.8769 24.0967L0.639648 8.78613Z" fill="#65C466"/>
<path d="M65.2592 0.0488281H4.9473C2.79762 0.0488281 1.09165 1.6514 0.768555 3.71493L35.1032 26.3362L69.4379 3.71493C69.1148 1.6514 67.4088 0.0488281 65.2592 0.0488281Z" fill="#65C466"/>
<path d="M42.3839 26.6986L36.2881 30.7137C35.9262 30.9506 35.517 31.0669 35.1034 31.0669C34.6898 31.0669 34.2806 30.9506 33.9187 30.7137L27.8229 26.6943L0.777344 43.8014C1.10906 45.8477 2.80641 47.4373 4.94748 47.4373H65.2593C67.4004 47.4373 69.0978 45.8477 69.4295 43.8014L42.3839 26.6986Z" fill="#65C466"/>
</svg>
