<svg width="25" height="25" viewBox="0 0 25 25" fill="none" xmlns="http://www.w3.org/2000/svg">
<path d="M24.0904 12.3716C24.0904 5.75021 18.724 0.383789 12.1026 0.383789C5.48117 0.383789 0.114746 5.75021 0.114746 12.3716C0.114746 18.993 5.48117 24.3594 12.1026 24.3594C12.1728 24.3594 12.2431 24.3594 12.3133 24.3548V15.0267H9.73778V12.0251H12.3133V9.81483C12.3133 7.25337 13.8773 5.85792 16.1625 5.85792C17.2583 5.85792 18.1995 5.93752 18.4711 5.97498V8.65351H16.8977C15.6568 8.65351 15.4133 9.24354 15.4133 10.1098V12.0204H18.3868L17.9981 15.022H15.4133V23.8958C20.4238 22.4582 24.0904 17.8457 24.0904 12.3716Z" fill="#959AA6"/>
</svg>
