<svg width="25" height="25" viewBox="0 0 25 25" fill="none" xmlns="http://www.w3.org/2000/svg">
<path d="M14.7985 12.3716C14.7985 13.54 13.8514 14.4871 12.683 14.4871C11.5146 14.4871 10.5675 13.54 10.5675 12.3716C10.5675 11.2032 11.5146 10.2561 12.683 10.2561C13.8514 10.2561 14.7985 11.2032 14.7985 12.3716Z" fill="#959AA6"/>
<path d="M17.3768 8.82052C17.2803 8.55909 17.1264 8.32245 16.9264 8.12821C16.7321 7.92822 16.4956 7.7743 16.2341 7.67782C16.0219 7.59542 15.7032 7.49734 15.1162 7.47062C14.4811 7.44166 14.2907 7.43542 12.6831 7.43542C11.0753 7.43542 10.8849 7.4415 10.25 7.47046C9.66296 7.49734 9.34408 7.59542 9.13208 7.67782C8.87049 7.7743 8.63385 7.92822 8.43978 8.12821C8.23978 8.32245 8.08586 8.55893 7.98922 8.82052C7.90682 9.03268 7.80875 9.35155 7.78203 9.93859C7.75307 10.5735 7.74683 10.7639 7.74683 12.3717C7.74683 13.9793 7.75307 14.1697 7.78203 14.8047C7.80875 15.3918 7.90682 15.7105 7.98922 15.9227C8.08586 16.1842 8.23962 16.4207 8.43962 16.615C8.63385 16.815 8.87033 16.9689 9.13192 17.0654C9.34408 17.1479 9.66296 17.246 10.25 17.2727C10.8849 17.3017 11.0751 17.3077 12.6829 17.3077C14.2909 17.3077 14.4813 17.3017 15.116 17.2727C15.703 17.246 16.0219 17.1479 16.2341 17.0654C16.7592 16.8628 17.1742 16.4478 17.3768 15.9227C17.4592 15.7105 17.5572 15.3918 17.5841 14.8047C17.6131 14.1697 17.6192 13.9793 17.6192 12.3717C17.6192 10.7639 17.6131 10.5735 17.5841 9.93859C17.5574 9.35155 17.4593 9.03268 17.3768 8.82052ZM12.6831 15.4633C10.9754 15.4633 9.59112 14.0792 9.59112 12.3715C9.59112 10.6639 10.9754 9.27972 12.6831 9.27972C14.3906 9.27972 15.7749 10.6639 15.7749 12.3715C15.7749 14.0792 14.3906 15.4633 12.6831 15.4633ZM15.8971 9.88003C15.4981 9.88003 15.1745 9.55651 15.1745 9.15748C15.1745 8.75844 15.4981 8.43493 15.8971 8.43493C16.2961 8.43493 16.6196 8.75844 16.6196 9.15748C16.6195 9.55651 16.2961 9.88003 15.8971 9.88003Z" fill="#959AA6"/>
<path d="M12.683 0.383789C6.06333 0.383789 0.69519 5.75193 0.69519 12.3716C0.69519 18.9913 6.06333 24.3594 12.683 24.3594C19.3027 24.3594 24.6708 18.9913 24.6708 12.3716C24.6708 5.75193 19.3027 0.383789 12.683 0.383789ZM19.5251 15.2096C19.4918 15.9424 19.3753 16.4427 19.2052 16.8806C18.8476 17.8052 18.1166 18.5362 17.192 18.8938C16.7543 19.0639 16.2538 19.1802 15.5212 19.2137C14.7871 19.2472 14.5526 19.2552 12.6832 19.2552C10.8136 19.2552 10.5793 19.2472 9.84501 19.2137C9.11242 19.1802 8.61195 19.0639 8.17423 18.8938C7.71473 18.7209 7.29877 18.45 6.95488 18.0997C6.60478 17.756 6.33387 17.3399 6.16101 16.8806C5.9909 16.4429 5.87438 15.9424 5.84109 15.2098C5.80725 14.4756 5.79938 14.2411 5.79938 12.3716C5.79938 10.5022 5.80725 10.2677 5.8409 9.53361C5.87419 8.80084 5.99053 8.30055 6.16065 7.86264C6.33351 7.40333 6.60459 6.98719 6.95488 6.64348C7.29859 6.29319 7.71473 6.02229 8.17404 5.84943C8.61195 5.67931 9.11224 5.56298 9.84501 5.5295C10.5791 5.49603 10.8136 5.48798 12.683 5.48798C14.5525 5.48798 14.787 5.49603 15.521 5.52969C16.2538 5.56298 16.7541 5.67931 17.192 5.84925C17.6513 6.0221 18.0674 6.29319 18.4113 6.64348C18.7614 6.98737 19.0325 7.40333 19.2052 7.86264C19.3755 8.30055 19.4918 8.80084 19.5253 9.53361C19.5588 10.2677 19.5666 10.5022 19.5666 12.3716C19.5666 14.2411 19.5588 14.4756 19.5251 15.2096Z" fill="#959AA6"/>
</svg>
