<svg width="209" height="25" viewBox="0 0 209 25" fill="none" xmlns="http://www.w3.org/2000/svg">
<path d="M15.6279 19.0944H11.3079L4.51547 10.1827V19.0944H0.766038V0.0754912H4.51547V8.47096L11.0362 0.0754912H15.3562L8.31925 9.31323L15.6279 19.0944ZM28.9747 5.50945V19.0944H25.4698V8.87851H21.7203V13.4159C21.7203 17.6181 19.8094 19.511 15.9875 19.0944V15.8068C16.712 15.9879 17.2645 15.8702 17.6449 15.4536C18.0252 15.0189 18.2154 14.2762 18.2154 13.2257V5.50945H28.9747ZM42.4753 5.50945H45.9802V19.0944H42.4753V17.4913C41.4247 18.8136 39.9485 19.4747 38.0466 19.4747C36.2353 19.4747 34.6776 18.7864 33.3734 17.4098C32.0874 16.0151 31.4444 14.3125 31.4444 12.3019C31.4444 10.2913 32.0874 8.59776 33.3734 7.22115C34.6776 5.82644 36.2353 5.12908 38.0466 5.12908C39.9485 5.12908 41.4247 5.79021 42.4753 7.11247V5.50945ZM36.0089 15.0732C36.7153 15.7796 37.6119 16.1329 38.6987 16.1329C39.7855 16.1329 40.6821 15.7796 41.3885 15.0732C42.113 14.3487 42.4753 13.4249 42.4753 12.3019C42.4753 11.1789 42.113 10.2642 41.3885 9.55776C40.6821 8.83323 39.7855 8.47096 38.6987 8.47096C37.6119 8.47096 36.7153 8.83323 36.0089 9.55776C35.3025 10.2642 34.9493 11.1789 34.9493 12.3019C34.9493 13.4249 35.3025 14.3487 36.0089 15.0732ZM55.6249 19.4747C53.5781 19.4747 51.8664 18.7864 50.4898 17.4098C49.1313 16.0332 48.452 14.3306 48.452 12.3019C48.452 10.2732 49.1313 8.57059 50.4898 7.19398C51.8664 5.81738 53.5781 5.12908 55.6249 5.12908C56.9471 5.12908 58.1517 5.44606 59.2384 6.08002C60.3252 6.71398 61.1494 7.5653 61.7109 8.63398L58.695 10.4C58.4233 9.83851 58.0067 9.39474 57.4452 9.0687C56.9018 8.74266 56.286 8.57964 55.5977 8.57964C54.5471 8.57964 53.6777 8.93285 52.9894 9.63927C52.3011 10.3276 51.9569 11.2151 51.9569 12.3019C51.9569 13.3706 52.3011 14.2581 52.9894 14.9645C53.6777 15.6529 54.5471 15.997 55.5977 15.997C56.3041 15.997 56.929 15.843 57.4724 15.5351C58.0339 15.2091 58.4505 14.7653 58.7222 14.2038L61.7652 15.9427C61.1675 17.0113 60.3252 17.8717 59.2384 18.5238C58.1517 19.1578 56.9471 19.4747 55.6249 19.4747ZM69.8731 19.4747C67.8263 19.4747 66.1146 18.7864 64.738 17.4098C63.3795 16.0332 62.7003 14.3306 62.7003 12.3019C62.7003 10.2732 63.3795 8.57059 64.738 7.19398C66.1146 5.81738 67.8263 5.12908 69.8731 5.12908C71.1954 5.12908 72.3999 5.44606 73.4867 6.08002C74.5735 6.71398 75.3976 7.5653 75.9591 8.63398L72.9433 10.4C72.6716 9.83851 72.255 9.39474 71.6935 9.0687C71.1501 8.74266 70.5342 8.57964 69.8459 8.57964C68.7954 8.57964 67.9259 8.93285 67.2376 9.63927C66.5493 10.3276 66.2052 11.2151 66.2052 12.3019C66.2052 13.3706 66.5493 14.2581 67.2376 14.9645C67.9259 15.6529 68.7954 15.997 69.8459 15.997C70.5523 15.997 71.1772 15.843 71.7206 15.5351C72.2821 15.2091 72.6988 14.7653 72.9705 14.2038L76.0135 15.9427C75.4157 17.0113 74.5735 17.8717 73.4867 18.5238C72.3999 19.1578 71.1954 19.4747 69.8731 19.4747ZM87.7816 5.50945H90.3899V19.0944H86.9665V11.3781L80.5816 19.0944H77.9733V5.50945H81.3967V13.2257L87.7816 5.50945ZM106.127 19.0944H102.051L97.1062 12.9268V19.0944H93.6012V5.50945H97.1062V11.4868L101.779 5.50945H105.964L100.502 12.2204L106.127 19.0944ZM117.219 5.50945H120.724V19.0944H117.219V17.4913C116.168 18.8136 114.692 19.4747 112.79 19.4747C110.979 19.4747 109.421 18.7864 108.117 17.4098C106.831 16.0151 106.188 14.3125 106.188 12.3019C106.188 10.2913 106.831 8.59776 108.117 7.22115C109.421 5.82644 110.979 5.12908 112.79 5.12908C114.692 5.12908 116.168 5.79021 117.219 7.11247V5.50945ZM110.752 15.0732C111.459 15.7796 112.355 16.1329 113.442 16.1329C114.529 16.1329 115.426 15.7796 116.132 15.0732C116.857 14.3487 117.219 13.4249 117.219 12.3019C117.219 11.1789 116.857 10.2642 116.132 9.55776C115.426 8.83323 114.529 8.47096 113.442 8.47096C112.355 8.47096 111.459 8.83323 110.752 9.55776C110.046 10.2642 109.693 11.1789 109.693 12.3019C109.693 13.4249 110.046 14.3487 110.752 15.0732ZM143.111 5.50945V19.0944H139.606V8.797H134.199V19.0944H130.694V5.50945H143.111ZM154.229 5.12908C156.058 5.12908 157.616 5.82644 158.902 7.22115C160.206 8.59776 160.858 10.2913 160.858 12.3019C160.858 14.3125 160.206 16.0151 158.902 17.4098C157.616 18.7864 156.058 19.4747 154.229 19.4747C152.327 19.4747 150.86 18.8136 149.827 17.4913V24.5283H146.322V5.50945H149.827V7.11247C150.86 5.79021 152.327 5.12908 154.229 5.12908ZM150.887 15.0732C151.593 15.7796 152.49 16.1329 153.577 16.1329C154.663 16.1329 155.56 15.7796 156.267 15.0732C156.991 14.3487 157.353 13.4249 157.353 12.3019C157.353 11.1789 156.991 10.2642 156.267 9.55776C155.56 8.83323 154.663 8.47096 153.577 8.47096C152.49 8.47096 151.593 8.83323 150.887 9.55776C150.18 10.2642 149.827 11.1789 149.827 12.3019C149.827 13.4249 150.18 14.3487 150.887 15.0732ZM173.655 5.50945H177.159V19.0944H173.655V17.4913C172.604 18.8136 171.128 19.4747 169.226 19.4747C167.415 19.4747 165.857 18.7864 164.553 17.4098C163.267 16.0151 162.624 14.3125 162.624 12.3019C162.624 10.2913 163.267 8.59776 164.553 7.22115C165.857 5.82644 167.415 5.12908 169.226 5.12908C171.128 5.12908 172.604 5.79021 173.655 7.11247V5.50945ZM167.188 15.0732C167.895 15.7796 168.791 16.1329 169.878 16.1329C170.965 16.1329 171.861 15.7796 172.568 15.0732C173.292 14.3487 173.655 13.4249 173.655 12.3019C173.655 11.1789 173.292 10.2642 172.568 9.55776C171.861 8.83323 170.965 8.47096 169.878 8.47096C168.791 8.47096 167.895 8.83323 167.188 9.55776C166.482 10.2642 166.129 11.1789 166.129 12.3019C166.129 13.4249 166.482 14.3487 167.188 15.0732ZM190.119 12.1389C191.387 12.7547 192.021 13.7872 192.021 15.2362C192.021 16.3774 191.622 17.3102 190.825 18.0347C190.046 18.7412 188.932 19.0944 187.483 19.0944H180.338V5.50945H186.94C188.371 5.50945 189.476 5.86266 190.255 6.56908C191.052 7.27549 191.45 8.19927 191.45 9.3404C191.45 10.5359 191.006 11.4687 190.119 12.1389ZM186.614 8.38945H183.625V10.8347H186.614C187.61 10.8347 188.108 10.4272 188.108 9.6121C188.108 8.797 187.61 8.38945 186.614 8.38945ZM187.076 16.1329C188.09 16.1329 188.597 15.6981 188.597 14.8287C188.597 14.4483 188.461 14.1495 188.19 13.9321C187.918 13.7147 187.547 13.6061 187.076 13.6061H183.625V16.1329H187.076ZM204.539 5.50945H208.044V19.0944H204.539V17.4913C203.488 18.8136 202.012 19.4747 200.11 19.4747C198.299 19.4747 196.741 18.7864 195.437 17.4098C194.151 16.0151 193.508 14.3125 193.508 12.3019C193.508 10.2913 194.151 8.59776 195.437 7.22115C196.741 5.82644 198.299 5.12908 200.11 5.12908C202.012 5.12908 203.488 5.79021 204.539 7.11247V5.50945ZM198.073 15.0732C198.779 15.7796 199.676 16.1329 200.762 16.1329C201.849 16.1329 202.746 15.7796 203.452 15.0732C204.177 14.3487 204.539 13.4249 204.539 12.3019C204.539 11.1789 204.177 10.2642 203.452 9.55776C202.746 8.83323 201.849 8.47096 200.762 8.47096C199.676 8.47096 198.779 8.83323 198.073 9.55776C197.366 10.2642 197.013 11.1789 197.013 12.3019C197.013 13.4249 197.366 14.3487 198.073 15.0732Z" fill="white"/>
</svg>
