<svg width="138" height="17" viewBox="0 0 138 17" fill="none" xmlns="http://www.w3.org/2000/svg">
<path d="M5.174 6.52L10.016 13H7.154L2.654 7.096V13H0.17V0.399999H2.654V5.962L6.974 0.399999H9.836L5.174 6.52ZM11.7302 4H18.8582V13H16.5362V6.232H14.0522V9.238C14.0522 12.01 12.7862 13.264 10.2542 13V10.822C10.7342 10.942 11.1002 10.858 11.3522 10.57C11.6042 10.282 11.7302 9.796 11.7302 9.112V4ZM27.8024 5.062V4H30.1244V13H27.8024V11.938C27.1064 12.814 26.1284 13.252 24.8684 13.252C23.6684 13.252 22.6364 12.796 21.7724 11.884C20.9204 10.96 20.4944 9.832 20.4944 8.5C20.4944 7.18 20.9204 6.058 21.7724 5.134C22.6364 4.21 23.6684 3.748 24.8684 3.748C26.1284 3.748 27.1064 4.186 27.8024 5.062ZM23.5184 10.336C23.9864 10.804 24.5804 11.038 25.3004 11.038C26.0204 11.038 26.6144 10.804 27.0824 10.336C27.5624 9.856 27.8024 9.244 27.8024 8.5C27.8024 7.756 27.5624 7.15 27.0824 6.682C26.6144 6.202 26.0204 5.962 25.3004 5.962C24.5804 5.962 23.9864 6.202 23.5184 6.682C23.0504 7.15 22.8164 7.756 22.8164 8.5C22.8164 9.244 23.0504 9.856 23.5184 10.336ZM36.514 13.252C35.158 13.252 34.024 12.796 33.112 11.884C32.212 10.972 31.762 9.844 31.762 8.5C31.762 7.156 32.212 6.028 33.112 5.116C34.024 4.204 35.158 3.748 36.514 3.748C37.39 3.748 38.188 3.958 38.908 4.378C39.628 4.798 40.174 5.362 40.546 6.07L38.548 7.24C38.368 6.868 38.092 6.574 37.72 6.358C37.36 6.142 36.952 6.034 36.496 6.034C35.8 6.034 35.224 6.268 34.768 6.736C34.312 7.192 34.084 7.78 34.084 8.5C34.084 9.196 34.312 9.784 34.768 10.264C35.224 10.72 35.8 10.948 36.496 10.948C36.964 10.948 37.378 10.846 37.738 10.642C38.11 10.426 38.386 10.132 38.566 9.76L40.582 10.912C40.186 11.632 39.622 12.202 38.89 12.622C38.17 13.042 37.378 13.252 36.514 13.252ZM45.9534 13.252C44.5974 13.252 43.4634 12.796 42.5514 11.884C41.6514 10.972 41.2014 9.844 41.2014 8.5C41.2014 7.156 41.6514 6.028 42.5514 5.116C43.4634 4.204 44.5974 3.748 45.9534 3.748C46.8294 3.748 47.6274 3.958 48.3474 4.378C49.0674 4.798 49.6134 5.362 49.9854 6.07L47.9874 7.24C47.8074 6.868 47.5314 6.574 47.1594 6.358C46.7994 6.142 46.3914 6.034 45.9354 6.034C45.2394 6.034 44.6634 6.268 44.2074 6.736C43.7514 7.192 43.5234 7.78 43.5234 8.5C43.5234 9.196 43.7514 9.784 44.2074 10.264C44.6634 10.72 45.2394 10.948 45.9354 10.948C46.4034 10.948 46.8174 10.846 47.1774 10.642C47.5494 10.426 47.8254 10.132 48.0054 9.76L50.0214 10.912C49.6254 11.632 49.0614 12.202 48.3294 12.622C47.6094 13.042 46.8174 13.252 45.9534 13.252ZM53.5878 9.112L57.8178 4H59.5458V13H57.2778V7.888L53.0478 13H51.3198V4H53.5878V9.112ZM66.2453 8.446L69.9713 13H67.2713L63.9953 8.914V13H61.6733V4H63.9953V7.96L67.0913 4H69.8633L66.2453 8.446ZM77.32 5.062V4H79.642V13H77.32V11.938C76.624 12.814 75.646 13.252 74.386 13.252C73.186 13.252 72.154 12.796 71.29 11.884C70.438 10.96 70.012 9.832 70.012 8.5C70.012 7.18 70.438 6.058 71.29 5.134C72.154 4.21 73.186 3.748 74.386 3.748C75.646 3.748 76.624 4.186 77.32 5.062ZM73.036 10.336C73.504 10.804 74.098 11.038 74.818 11.038C75.538 11.038 76.132 10.804 76.6 10.336C77.08 9.856 77.32 9.244 77.32 8.5C77.32 7.756 77.08 7.15 76.6 6.682C76.132 6.202 75.538 5.962 74.818 5.962C74.098 5.962 73.504 6.202 73.036 6.682C72.568 7.15 72.334 7.756 72.334 8.5C72.334 9.244 72.568 9.856 73.036 10.336ZM86.2475 4H94.4735V13H92.1515V6.178H88.5695V13H86.2475V4ZM101.839 3.748C103.051 3.748 104.083 4.21 104.935 5.134C105.799 6.058 106.231 7.18 106.231 8.5C106.231 9.844 105.799 10.972 104.935 11.884C104.095 12.796 103.063 13.252 101.839 13.252C100.579 13.252 99.6071 12.814 98.9231 11.938V16.6H96.6011V4H98.9231V5.062C99.6071 4.186 100.579 3.748 101.839 3.748ZM99.6251 10.336C100.093 10.804 100.687 11.038 101.407 11.038C102.127 11.038 102.721 10.804 103.189 10.336C103.669 9.856 103.909 9.244 103.909 8.5C103.909 7.756 103.669 7.15 103.189 6.682C102.721 6.202 102.127 5.962 101.407 5.962C100.687 5.962 100.093 6.202 99.6251 6.682C99.1571 7.15 98.9231 7.756 98.9231 8.5C98.9231 9.244 99.1571 9.856 99.6251 10.336ZM114.709 5.062V4H117.031V13H114.709V11.938C114.013 12.814 113.035 13.252 111.775 13.252C110.575 13.252 109.543 12.796 108.679 11.884C107.827 10.96 107.401 9.832 107.401 8.5C107.401 7.18 107.827 6.058 108.679 5.134C109.543 4.21 110.575 3.748 111.775 3.748C113.035 3.748 114.013 4.186 114.709 5.062ZM110.425 10.336C110.893 10.804 111.487 11.038 112.207 11.038C112.927 11.038 113.521 10.804 113.989 10.336C114.469 9.856 114.709 9.244 114.709 8.5C114.709 7.756 114.469 7.15 113.989 6.682C113.521 6.202 112.927 5.962 112.207 5.962C111.487 5.962 110.893 6.202 110.425 6.682C109.957 7.15 109.723 7.756 109.723 8.5C109.723 9.244 109.957 9.856 110.425 10.336ZM125.616 8.392C126.456 8.8 126.876 9.484 126.876 10.444C126.876 11.212 126.612 11.83 126.084 12.298C125.556 12.766 124.818 13 123.87 13H119.136V4H123.51C124.446 4 125.178 4.234 125.706 4.702C126.234 5.158 126.498 5.77 126.498 6.538C126.498 7.33 126.204 7.948 125.616 8.392ZM123.294 5.908H121.314V7.528H123.294C123.954 7.528 124.284 7.258 124.284 6.718C124.284 6.178 123.954 5.908 123.294 5.908ZM121.314 11.038H123.6C124.272 11.038 124.608 10.75 124.608 10.174C124.608 9.922 124.518 9.724 124.338 9.58C124.158 9.436 123.912 9.364 123.6 9.364H121.314V11.038ZM135.17 5.062V4H137.492V13H135.17V11.938C134.474 12.814 133.496 13.252 132.236 13.252C131.036 13.252 130.004 12.796 129.14 11.884C128.288 10.96 127.862 9.832 127.862 8.5C127.862 7.18 128.288 6.058 129.14 5.134C130.004 4.21 131.036 3.748 132.236 3.748C133.496 3.748 134.474 4.186 135.17 5.062ZM130.886 10.336C131.354 10.804 131.948 11.038 132.668 11.038C133.388 11.038 133.982 10.804 134.45 10.336C134.93 9.856 135.17 9.244 135.17 8.5C135.17 7.756 134.93 7.15 134.45 6.682C133.982 6.202 133.388 5.962 132.668 5.962C131.948 5.962 131.354 6.202 130.886 6.682C130.418 7.15 130.184 7.756 130.184 8.5C130.184 9.244 130.418 9.856 130.886 10.336Z" fill="white"/>
</svg>
