<svg width="245" height="30" viewBox="0 0 245 30" fill="none" xmlns="http://www.w3.org/2000/svg">
<path d="M17.584 23H12.496L4.496 12.504V23H0.0800002V0.599998H4.496V10.488L12.176 0.599998H17.264L8.976 11.48L17.584 23ZM33.3035 7V23H29.1755V10.968H24.7595V16.312C24.7595 21.2613 22.5088 23.4907 18.0075 23V19.128C18.8608 19.3413 19.5115 19.2027 19.9595 18.712C20.4075 18.2 20.6315 17.3253 20.6315 16.088V7H33.3035ZM49.2043 7H53.3323V23H49.2043V21.112C47.9669 22.6693 46.2283 23.448 43.9883 23.448C41.8549 23.448 40.0203 22.6373 38.4843 21.016C36.9696 19.3733 36.2122 17.368 36.2122 15C36.2122 12.632 36.9696 10.6373 38.4843 9.016C40.0203 7.37333 41.8549 6.552 43.9883 6.552C46.2283 6.552 47.9669 7.33067 49.2043 8.888V7ZM41.5883 18.264C42.4203 19.096 43.4763 19.512 44.7563 19.512C46.0363 19.512 47.0923 19.096 47.9243 18.264C48.7776 17.4107 49.2043 16.3227 49.2043 15C49.2043 13.6773 48.7776 12.6 47.9243 11.768C47.0923 10.9147 46.0363 10.488 44.7563 10.488C43.4763 10.488 42.4203 10.9147 41.5883 11.768C40.7563 12.6 40.3403 13.6773 40.3403 15C40.3403 16.3227 40.7563 17.4107 41.5883 18.264ZM64.6915 23.448C62.2808 23.448 60.2648 22.6373 58.6435 21.016C57.0435 19.3947 56.2435 17.3893 56.2435 15C56.2435 12.6107 57.0435 10.6053 58.6435 8.984C60.2648 7.36267 62.2808 6.552 64.6915 6.552C66.2488 6.552 67.6675 6.92533 68.9475 7.672C70.2275 8.41867 71.1982 9.42133 71.8595 10.68L68.3075 12.76C67.9875 12.0987 67.4968 11.576 66.8355 11.192C66.1955 10.808 65.4702 10.616 64.6595 10.616C63.4222 10.616 62.3982 11.032 61.5875 11.864C60.7768 12.6747 60.3715 13.72 60.3715 15C60.3715 16.2587 60.7768 17.304 61.5875 18.136C62.3982 18.9467 63.4222 19.352 64.6595 19.352C65.4915 19.352 66.2275 19.1707 66.8675 18.808C67.5288 18.424 68.0195 17.9013 68.3395 17.24L71.9235 19.288C71.2195 20.5467 70.2275 21.56 68.9475 22.328C67.6675 23.0747 66.2488 23.448 64.6915 23.448ZM81.4728 23.448C79.0621 23.448 77.0461 22.6373 75.4248 21.016C73.8248 19.3947 73.0247 17.3893 73.0247 15C73.0247 12.6107 73.8248 10.6053 75.4248 8.984C77.0461 7.36267 79.0621 6.552 81.4728 6.552C83.0301 6.552 84.4488 6.92533 85.7288 7.672C87.0088 8.41867 87.9794 9.42133 88.6408 10.68L85.0888 12.76C84.7688 12.0987 84.2781 11.576 83.6168 11.192C82.9768 10.808 82.2514 10.616 81.4408 10.616C80.2034 10.616 79.1794 11.032 78.3688 11.864C77.5581 12.6747 77.1528 13.72 77.1528 15C77.1528 16.2587 77.5581 17.304 78.3688 18.136C79.1794 18.9467 80.2034 19.352 81.4408 19.352C82.2728 19.352 83.0088 19.1707 83.6488 18.808C84.3101 18.424 84.8008 17.9013 85.1208 17.24L88.7048 19.288C88.0008 20.5467 87.0088 21.56 85.7288 22.328C84.4488 23.0747 83.0301 23.448 81.4728 23.448ZM102.565 7H105.637V23H101.605V13.912L94.085 23H91.013V7H95.045V16.088L102.565 7ZM124.171 23H119.371L113.547 15.736V23H109.419V7H113.547V14.04L119.051 7H123.979L117.547 14.904L124.171 23ZM137.236 7H141.364V23H137.236V21.112C135.998 22.6693 134.26 23.448 132.02 23.448C129.886 23.448 128.052 22.6373 126.516 21.016C125.001 19.3733 124.243 17.368 124.243 15C124.243 12.632 125.001 10.6373 126.516 9.016C128.052 7.37333 129.886 6.552 132.02 6.552C134.26 6.552 135.998 7.33067 137.236 8.888V7ZM129.62 18.264C130.452 19.096 131.508 19.512 132.788 19.512C134.068 19.512 135.124 19.096 135.956 18.264C136.809 17.4107 137.236 16.3227 137.236 15C137.236 13.6773 136.809 12.6 135.956 11.768C135.124 10.9147 134.068 10.488 132.788 10.488C131.508 10.488 130.452 10.9147 129.62 11.768C128.788 12.6 128.372 13.6773 128.372 15C128.372 16.3227 128.788 17.4107 129.62 18.264ZM167.731 7V23H163.603V10.872H157.235V23H153.107V7H167.731ZM180.825 6.552C182.98 6.552 184.814 7.37333 186.329 9.016C187.865 10.6373 188.633 12.632 188.633 15C188.633 17.368 187.865 19.3733 186.329 21.016C184.814 22.6373 182.98 23.448 180.825 23.448C178.585 23.448 176.857 22.6693 175.641 21.112V29.4H171.513V7H175.641V8.888C176.857 7.33067 178.585 6.552 180.825 6.552ZM176.889 18.264C177.721 19.096 178.777 19.512 180.057 19.512C181.337 19.512 182.393 19.096 183.225 18.264C184.078 17.4107 184.505 16.3227 184.505 15C184.505 13.6773 184.078 12.6 183.225 11.768C182.393 10.9147 181.337 10.488 180.057 10.488C178.777 10.488 177.721 10.9147 176.889 11.768C176.057 12.6 175.641 13.6773 175.641 15C175.641 16.3227 176.057 17.4107 176.889 18.264ZM203.704 7H207.832V23H203.704V21.112C202.467 22.6693 200.728 23.448 198.488 23.448C196.355 23.448 194.52 22.6373 192.984 21.016C191.47 19.3733 190.712 17.368 190.712 15C190.712 12.632 191.47 10.6373 192.984 9.016C194.52 7.37333 196.355 6.552 198.488 6.552C200.728 6.552 202.467 7.33067 203.704 8.888V7ZM196.088 18.264C196.92 19.096 197.976 19.512 199.256 19.512C200.536 19.512 201.592 19.096 202.424 18.264C203.278 17.4107 203.704 16.3227 203.704 15C203.704 13.6773 203.278 12.6 202.424 11.768C201.592 10.9147 200.536 10.488 199.256 10.488C197.976 10.488 196.92 10.9147 196.088 11.768C195.256 12.6 194.84 13.6773 194.84 15C194.84 16.3227 195.256 17.4107 196.088 18.264ZM223.096 14.808C224.589 15.5333 225.336 16.7493 225.336 18.456C225.336 19.8 224.866 20.8987 223.928 21.752C223.01 22.584 221.698 23 219.992 23H211.576V7H219.352C221.037 7 222.338 7.416 223.256 8.248C224.194 9.08 224.664 10.168 224.664 11.512C224.664 12.92 224.141 14.0187 223.096 14.808ZM218.968 10.392H215.448V13.272H218.968C220.141 13.272 220.728 12.792 220.728 11.832C220.728 10.872 220.141 10.392 218.968 10.392ZM219.512 19.512C220.706 19.512 221.304 19 221.304 17.976C221.304 17.528 221.144 17.176 220.824 16.92C220.504 16.664 220.066 16.536 219.512 16.536H215.448V19.512H219.512ZM240.079 7H244.207V23H240.079V21.112C238.842 22.6693 237.103 23.448 234.863 23.448C232.73 23.448 230.895 22.6373 229.359 21.016C227.845 19.3733 227.087 17.368 227.087 15C227.087 12.632 227.845 10.6373 229.359 9.016C230.895 7.37333 232.73 6.552 234.863 6.552C237.103 6.552 238.842 7.33067 240.079 8.888V7ZM232.463 18.264C233.295 19.096 234.351 19.512 235.631 19.512C236.911 19.512 237.967 19.096 238.799 18.264C239.653 17.4107 240.079 16.3227 240.079 15C240.079 13.6773 239.653 12.6 238.799 11.768C237.967 10.9147 236.911 10.488 235.631 10.488C234.351 10.488 233.295 10.9147 232.463 11.768C231.631 12.6 231.215 13.6773 231.215 15C231.215 16.3227 231.631 17.4107 232.463 18.264Z" fill="white"/>
</svg>
