<svg width="28" height="53" viewBox="0 0 28 53" fill="none" xmlns="http://www.w3.org/2000/svg">
<path d="M0.590752 27.9544L24.5707 52.4007C25.3563 53.2011 26.6284 53.1998 27.4127 52.3965C28.1965 51.5933 28.1944 50.2923 27.4087 49.4912L4.85611 26.4999L27.4095 3.50875C28.1952 2.70755 28.1972 1.40729 27.4135 0.604011C27.0203 0.20134 26.5052 -1.30677e-07 25.9901 -1.75709e-07C25.4763 -2.20626e-07 24.9632 0.199993 24.5708 0.599872L0.590752 25.0455C0.212346 25.4304 2.36442e-06 25.9542 2.31671e-06 26.4999C2.269e-06 27.0456 0.212952 27.5688 0.590752 27.9544Z" fill="#65C466"/>
</svg>
