<svg width="11" height="15" viewBox="0 0 11 15" fill="none" xmlns="http://www.w3.org/2000/svg">
<mask id="path-1-inside-1" fill="white">
<path d="M10.0142 7.38853L1.48787 0.826828C1.2056 0.617034 0.755805 0.623057 0.483195 0.840285C0.217246 1.05219 0.217246 1.38813 0.483195 1.60001L8.5072 7.77512L0.483195 13.9502C0.205797 14.1637 0.205797 14.5099 0.483195 14.7234C0.760676 14.9369 1.21043 14.9369 1.48787 14.7234L10.0142 8.16171C10.2916 7.94816 10.2916 7.60204 10.0142 7.38853Z"/>
</mask>
<path d="M10.0142 7.38853L1.48787 0.826828C1.2056 0.617034 0.755805 0.623057 0.483195 0.840285C0.217246 1.05219 0.217246 1.38813 0.483195 1.60001L8.5072 7.77512L0.483195 13.9502C0.205797 14.1637 0.205797 14.5099 0.483195 14.7234C0.760676 14.9369 1.21043 14.9369 1.48787 14.7234L10.0142 8.16171C10.2916 7.94816 10.2916 7.60204 10.0142 7.38853Z" fill="#888D97"/>
<path d="M10.0142 7.38853L18.6816 -3.87227L18.6808 -3.8729L10.0142 7.38853ZM1.48787 0.826828L10.1544 -10.4346L10.0601 -10.5072L9.96459 -10.5782L1.48787 0.826828ZM0.483195 0.840285L9.33856 11.9539L9.33883 11.9536L0.483195 0.840285ZM0.483195 1.60001L-8.37135 12.7142L-8.27798 12.7886L-8.18336 12.8614L0.483195 1.60001ZM8.5072 7.77512L17.1738 19.0365L31.807 7.77512L17.1738 -3.48631L8.5072 7.77512ZM0.483195 13.9502L-8.18336 2.68879L-8.18418 2.68942L0.483195 13.9502ZM0.483195 14.7234L-8.18418 25.9842L-8.18173 25.9861L0.483195 14.7234ZM1.48787 14.7234L10.1536 25.9855L10.1544 25.9848L1.48787 14.7234ZM10.0142 8.16171L18.6808 19.4231L18.6824 19.4219L10.0142 8.16171ZM18.6808 -3.8729L10.1544 -10.4346L-7.17869 12.0883L1.34766 18.65L18.6808 -3.8729ZM9.96459 -10.5782C4.57373 -14.5849 -2.99349 -14.5593 -8.37244 -10.2731L9.33883 11.9536C6.61324 14.1255 3.59438 14.8499 1.17221 14.8823C-1.25553 14.9148 -4.24709 14.2696 -6.98885 12.2318L9.96459 -10.5782ZM-8.37217 -10.2733C-11.4456 -7.82433 -13.9264 -3.78002 -13.9264 1.22016C-13.9264 6.22048 -11.4455 10.2651 -8.37135 12.7142L9.33774 -9.51422C12.1459 -7.27698 14.4939 -3.50625 14.4939 1.22016C14.4939 5.94642 12.1461 9.71681 9.33856 11.9539L-8.37217 -10.2733ZM-8.18336 12.8614L-0.159356 19.0365L17.1738 -3.48631L9.14975 -9.66142L-8.18336 12.8614ZM-0.159355 -3.48631L-8.18336 2.68879L9.14975 25.2117L17.1738 19.0365L-0.159355 -3.48631ZM-8.18418 2.68942C-11.3448 5.12213 -13.935 9.22202 -13.935 14.3368C-13.935 19.4516 -11.3448 23.5515 -8.18418 25.9842L9.15057 3.4626C12.0338 5.6818 14.4853 9.50186 14.4853 14.3368C14.4853 19.1718 12.0338 22.9918 9.15057 25.211L-8.18418 2.68942ZM-8.18173 25.9861C-2.79643 30.1293 4.76727 30.1301 10.1536 25.9855L-7.17787 3.46135C-4.44376 1.35755 -1.43906 0.673338 0.985549 0.673338C3.41022 0.673338 6.41444 1.35756 9.14812 3.46072L-8.18173 25.9861ZM10.1544 25.9848L18.6808 19.4231L1.34766 -3.09972L-7.17869 3.46197L10.1544 25.9848ZM18.6824 19.4219C21.8421 16.9895 24.4324 12.8901 24.4324 7.7751C24.4324 2.66 21.8419 -1.43978 18.6816 -3.87227L1.34684 18.6493C-1.5361 16.4303 -3.98791 12.6104 -3.98791 7.7751C-3.98791 2.93998 -1.53627 -0.879649 1.34603 -3.09847L18.6824 19.4219Z" fill="#959AA6" mask="url(#path-1-inside-1)"/>
</svg>
