<svg width="25" height="25" viewBox="0 0 25 25" fill="none" xmlns="http://www.w3.org/2000/svg">
<path d="M12.2025 0.383789C5.58183 0.383789 0.214722 5.7509 0.214722 12.3716C0.214722 18.9923 5.58183 24.3594 12.2025 24.3594C18.8233 24.3594 24.1904 18.9923 24.1904 12.3716C24.1904 5.7509 18.8233 0.383789 12.2025 0.383789ZM9.33945 19.0458C8.77752 19.7809 8.01766 20.1017 7.10769 20.1017C5.19798 20.0975 3.782 18.5496 3.99269 16.6948C4.13446 15.4442 5.24311 14.3218 6.54748 14.1052C7.56783 13.9362 8.4594 14.1746 9.18664 14.935C9.44344 15.2036 9.43952 15.298 9.17217 15.5482C9.00219 15.7066 8.83541 15.8692 8.66322 16.0257C8.42678 16.2408 8.36031 16.2384 8.11724 16.0201C7.49253 15.4577 6.65148 15.4932 6.09716 16.1054C5.58845 16.6669 5.60096 17.5484 6.12634 18.1003C6.64363 18.6445 7.50209 18.6889 8.09198 18.2023C8.55383 17.8209 8.55383 17.8209 9.00685 18.1993C9.09589 18.2742 9.18517 18.3492 9.27396 18.424C9.55357 18.6583 9.56535 18.75 9.33945 19.0458ZM20.0872 19.5609C20.0867 19.8917 20.0258 19.9499 19.6923 19.9509C19.3602 19.9518 19.0273 19.9523 18.6947 19.9509C18.4031 19.9494 18.3131 19.8741 18.3126 19.5834L18.3177 16.8405C18.294 15.7606 17.4075 15.2759 16.4581 15.8113C16.1596 15.9799 15.9641 16.1761 15.9827 16.5916V19.5334C15.9827 19.8959 15.94 19.9509 15.577 19.9513C15.2776 19.9513 14.9788 19.9528 14.6793 19.9509C14.4005 19.9489 14.3254 19.8743 14.3249 19.5967C14.3239 18.7323 14.3249 17.8677 14.3239 17.0034C14.3239 16.8871 14.3249 16.7701 14.3139 16.6546C14.2486 15.997 13.9124 15.6583 13.2906 15.6161C12.7328 15.5793 12.1299 16.0009 12.0022 16.5244C11.983 16.6031 11.9889 16.6892 11.9889 16.7721C11.9877 17.6862 11.9882 18.6004 11.9879 19.5145C11.9877 19.9104 11.9462 19.9506 11.5405 19.9511C11.2249 19.9511 10.909 19.9526 10.593 19.9506C10.3075 19.9487 10.2261 19.8682 10.2256 19.5766C10.2232 18.7453 10.2246 17.9143 10.2246 17.0831C10.2246 16.2688 10.2242 15.4537 10.2246 14.6394C10.2251 14.2575 10.2882 14.1972 10.6786 14.1957C10.7118 14.1957 10.7451 14.1957 10.7785 14.1957C11.2587 14.1957 11.2676 14.1928 11.4194 14.6313C11.4856 14.8226 11.5148 14.8908 11.7093 14.7186C12.7287 13.8155 14.4269 13.7989 15.3109 14.8226C15.4262 14.9556 15.487 14.8675 15.5699 14.7981C16.345 14.1491 17.2297 13.9063 18.2201 14.1288C19.2591 14.362 19.795 15.077 20.0121 16.0753C20.0702 16.3443 20.0894 16.6171 20.0889 16.892C20.0872 17.7821 20.0886 18.6717 20.0872 19.5609ZM18.6037 9.0886C18.6037 9.0886 18.488 9.53476 18.6013 9.72411C18.7534 9.86809 18.7681 10.005 18.6248 10.1516C18.5613 10.2166 18.565 10.2897 18.5797 10.3599C18.7708 11.2483 18.7597 12.157 18.8608 13.0542C18.8777 13.209 18.8068 13.2899 18.6731 13.3324C18.5993 13.3557 18.5998 13.3557 18.4526 13.364C18.3818 13.3633 18.3114 13.3525 18.2417 13.3304C18.1083 13.288 18.0369 13.207 18.0541 13.0523C18.1546 12.155 18.1436 11.246 18.3352 10.3579C18.3504 10.2878 18.3533 10.2149 18.29 10.1497C18.1468 10.003 18.1613 9.86613 18.3136 9.72215C18.3901 9.59412 18.3619 9.34835 18.3356 9.20266C18.1196 9.29513 16.7384 9.88624 16.1105 10.1448C15.9658 10.2044 15.9104 10.2561 15.9447 10.4315C16.0597 11.0096 16.1473 11.5926 16.2447 12.1739C16.306 12.5372 16.1689 12.7179 15.8034 12.73C15.4 12.7432 15.0105 12.6434 14.6244 12.547C12.9769 12.1337 11.3367 12.1474 9.69583 12.583C9.35956 12.6726 9.01421 12.7378 8.66298 12.7312C8.24037 12.7231 8.1013 12.5455 8.17218 12.1263C8.26637 11.5696 8.34584 11.0101 8.45891 10.4572C8.49889 10.2625 8.43733 10.2024 8.27544 10.1347C6.845 9.535 5.41823 8.92697 3.99049 8.32114C3.91592 8.28974 3.84357 8.25393 3.73099 8.20169C4.61717 7.82691 5.46238 7.47003 6.30638 7.11193C8.20063 6.30915 10.0944 5.50636 11.9874 4.70088C12.1128 4.64765 12.2192 4.61184 12.3622 4.67292L20.6736 8.2115L18.6037 9.0886Z" fill="#959AA6"/>
</svg>
