<svg width="25" height="25" viewBox="0 0 25 25" fill="none" xmlns="http://www.w3.org/2000/svg">
<path d="M12.3927 24.3594C19.015 24.3594 24.3806 18.9939 24.3806 12.3716C24.3806 5.74934 19.015 0.383789 12.3927 0.383789C5.77046 0.383789 0.404907 5.74934 0.404907 12.3716C0.404907 18.9939 5.77046 24.3594 12.3927 24.3594ZM5.89034 12.1119L17.4486 7.6554C17.9851 7.4616 18.4536 7.78627 18.2797 8.59745L18.2807 8.59645L16.3127 17.868C16.1669 18.5254 15.7763 18.6852 15.2298 18.3755L12.2329 16.1668L10.7874 17.5593C10.6275 17.7192 10.4927 17.854 10.183 17.854L10.3958 14.8041L15.9501 9.78624C16.1919 9.57345 15.8962 9.45358 15.5775 9.66536L8.71347 13.987L5.75447 13.0639C5.11213 12.8601 5.09814 12.4216 5.89034 12.1119Z" fill="#959AA6"/>
</svg>
