<svg width="25" height="25" viewBox="0 0 25 25" fill="none" xmlns="http://www.w3.org/2000/svg">
<path d="M12.2572 0.383789C5.63755 0.383789 0.269409 5.75193 0.269409 12.3716C0.269409 18.9913 5.63755 24.3594 12.2572 24.3594C18.8769 24.3594 24.2451 18.9913 24.2451 12.3716C24.2451 5.75193 18.8769 0.383789 12.2572 0.383789ZM17.7307 9.73062C17.736 9.8486 17.7386 9.96713 17.7386 10.0862C17.7386 13.7221 14.971 17.9148 9.90982 17.915H9.91001H9.90982C8.35592 17.915 6.90994 17.4595 5.69225 16.679C5.90754 16.7044 6.12668 16.7171 6.34856 16.7171C7.63778 16.7171 8.8242 16.2773 9.76605 15.5392C8.56152 15.5169 7.54595 14.7214 7.19548 13.6281C7.36322 13.6603 7.53571 13.6778 7.71259 13.6778C7.96374 13.6778 8.20702 13.644 8.43824 13.5809C7.1792 13.3288 6.23076 12.2161 6.23076 10.8837C6.23076 10.8713 6.23076 10.8601 6.23113 10.8486C6.6019 11.0548 7.02591 11.1788 7.47736 11.1927C6.73855 10.6997 6.25289 9.85701 6.25289 8.90236C6.25289 8.39823 6.38917 7.92593 6.6255 7.5193C7.9824 9.18424 10.0102 10.2792 12.2971 10.3942C12.2499 10.1927 12.2256 9.98268 12.2256 9.76684C12.2256 8.24787 13.4579 7.01554 14.9774 7.01554C15.7689 7.01554 16.4838 7.3501 16.9859 7.88496C17.6128 7.7613 18.2014 7.53229 18.7331 7.21712C18.5274 7.85935 18.0913 8.39823 17.5231 8.73901C18.0797 8.67243 18.6102 8.52481 19.1032 8.30567C18.735 8.85754 18.268 9.34228 17.7307 9.73062Z" fill="#959AA6"/>
</svg>
