<svg width="24" height="25" viewBox="0 0 24 25" fill="none" xmlns="http://www.w3.org/2000/svg">
<path d="M12.0536 0.383789C5.53049 0.383789 0.242065 5.67197 0.242065 12.1953C0.242065 18.7187 5.53049 24.0069 12.0536 24.0069C18.5767 24.0069 23.8651 18.7187 23.8651 12.1953C23.8651 5.67197 18.5767 0.383789 12.0536 0.383789ZM18.045 13.4728C18.5956 14.0105 19.178 14.5165 19.6722 15.1098C19.8911 15.3723 20.0975 15.6437 20.2546 15.9489C20.4789 16.3842 20.2764 16.8614 19.8868 16.8873L17.467 16.8868C16.842 16.9385 16.3447 16.6865 15.9254 16.2592C15.5907 15.9187 15.2801 15.555 14.9577 15.2029C14.826 15.0584 14.6873 14.9223 14.522 14.8152C14.1921 14.6006 13.9055 14.6664 13.7165 15.011C13.5239 15.3617 13.4799 15.7503 13.4616 16.1406C13.4352 16.7111 13.2631 16.8602 12.6906 16.8871C11.4673 16.9443 10.3066 16.7587 9.22777 16.142C8.27608 15.598 7.53948 14.8302 6.89761 13.9609C5.6477 12.2664 4.69045 10.4065 3.83035 8.49321C3.63678 8.06231 3.7784 7.83176 4.25376 7.82282C5.04353 7.80759 5.8333 7.80953 6.62307 7.82209C6.94449 7.82717 7.15716 8.01108 7.28065 8.31437C7.70744 9.36442 8.23065 10.3635 8.88629 11.29C9.06102 11.5368 9.23937 11.7828 9.49336 11.957C9.7737 12.1494 9.98733 12.0858 10.1195 11.7729C10.2041 11.574 10.2406 11.3613 10.259 11.1482C10.3218 10.4181 10.3293 9.68825 10.2205 8.96107C10.1529 8.50601 9.89695 8.21215 9.44334 8.12611C9.2123 8.08237 9.24614 7.99682 9.35851 7.86487C9.55354 7.63673 9.73624 7.4956 10.1014 7.4956L12.8354 7.49512C13.2663 7.5797 13.363 7.77303 13.4214 8.20707L13.4239 11.2453C13.4188 11.4133 13.5082 11.9111 13.8098 12.0211C14.0515 12.1008 14.211 11.907 14.3555 11.754C15.0111 11.0583 15.4783 10.2371 15.8966 9.38714C16.0812 9.01231 16.2405 8.62443 16.3952 8.23583C16.5102 7.94849 16.689 7.80711 17.0134 7.81194L19.6461 7.81508C19.7237 7.81508 19.8024 7.81581 19.8793 7.8291C20.323 7.90499 20.4446 8.0959 20.3073 8.52873C20.0912 9.20879 19.6715 9.77525 19.2611 10.3432C18.8213 10.9512 18.3522 11.538 17.9167 12.1487C17.5165 12.7069 17.5482 12.988 18.045 13.4728Z" fill="#959AA6"/>
</svg>
