<svg width="25" height="25" viewBox="0 0 25 25" fill="none" xmlns="http://www.w3.org/2000/svg">
<path d="M11.4701 14.4871L14.2908 12.3716L11.4701 10.2561V14.4871Z" fill="#959AA6"/>
<path d="M12.1753 0.383789C5.55564 0.383789 0.1875 5.75193 0.1875 12.3716C0.1875 18.9913 5.55564 24.3594 12.1753 24.3594C18.795 24.3594 24.1631 18.9913 24.1631 12.3716C24.1631 5.75193 18.795 0.383789 12.1753 0.383789ZM19.6659 12.3839C19.6659 12.3839 19.6659 14.8151 19.3575 15.9874C19.1846 16.6291 18.6787 17.135 18.037 17.3077C16.8647 17.6163 12.1753 17.6163 12.1753 17.6163C12.1753 17.6163 7.49825 17.6163 6.31366 17.2954C5.67198 17.1228 5.16602 16.6166 4.99317 15.9749C4.68458 14.8151 4.68458 12.3716 4.68458 12.3716C4.68458 12.3716 4.68458 9.94061 4.99317 8.76828C5.16584 8.1266 5.68424 7.6082 6.31366 7.43552C7.48599 7.12694 12.1753 7.12694 12.1753 7.12694C12.1753 7.12694 16.8647 7.12694 18.037 7.44778C18.6787 7.62046 19.1846 8.1266 19.3575 8.76828C19.6783 9.94061 19.6659 12.3839 19.6659 12.3839Z" fill="#959AA6"/>
</svg>
