<svg width="59" height="42" viewBox="0 0 59 42" fill="none" xmlns="http://www.w3.org/2000/svg">
<path d="M14.0803 30.1111C10.9155 30.1111 8.3418 32.6848 8.3418 35.8496C8.3418 39.0144 10.9155 41.5881 14.0803 41.5881C17.2451 41.5881 19.8188 39.0144 19.8188 35.8496C19.8188 32.6848 17.245 30.1111 14.0803 30.1111ZM14.0803 39.6752C11.9704 39.6752 10.2547 37.9594 10.2547 35.8496C10.2547 33.7397 11.9705 32.024 14.0803 32.024C16.1901 32.024 17.9059 33.7398 17.9059 35.8496C17.9059 37.9594 16.1901 39.6752 14.0803 39.6752Z" fill="#65C466"/>
<path d="M46.5989 30.1111C43.4341 30.1111 40.8604 32.6848 40.8604 35.8496C40.8604 39.0144 43.4341 41.5881 46.5989 41.5881C49.7637 41.5881 52.3374 39.0144 52.3374 35.8496C52.3374 32.6848 49.7637 30.1111 46.5989 30.1111ZM46.5989 39.6752C44.489 39.6752 42.7732 37.9594 42.7732 35.8496C42.7732 33.7397 44.4891 32.024 46.5989 32.024C48.7088 32.024 50.4245 33.7398 50.4245 35.8496C50.4245 37.9594 48.7088 39.6752 46.5989 39.6752Z" fill="#65C466"/>
<path d="M57.9242 24.8116L49.3165 11.4217C49.1405 11.1481 48.8373 10.9827 48.5121 10.9827H37.9915C37.4626 10.9827 37.0352 11.4111 37.0352 11.939V35.8495C37.0352 36.3784 37.4626 36.8058 37.9915 36.8058H41.8172V34.893H38.9479V12.8955H47.9899L56.1634 25.6101V34.8932H51.3813V36.806H57.1198C57.6487 36.806 58.0762 36.3785 58.0762 35.8496V25.3289C58.0763 25.1462 58.0238 24.9655 57.9242 24.8116Z" fill="#65C466"/>
<path d="M42.7731 23.4161V16.7212H50.4245V14.8083H41.8167C41.2878 14.8083 40.8604 15.2368 40.8604 15.7647V24.3725C40.8604 24.9014 41.2878 25.3289 41.8167 25.3289H56.163V23.416H42.7731V23.4161Z" fill="#65C466"/>
<path d="M37.9917 4.32495H1.64779C1.11989 4.32495 0.691406 4.75343 0.691406 5.28133V35.8867C0.691406 36.4157 1.11989 36.8431 1.64779 36.8431H9.29917V34.9303H2.60428V6.23771H37.0353V34.9303H18.8633V36.8431H37.9917C38.5206 36.8431 38.9481 36.4157 38.9481 35.8867V5.28133C38.9481 4.75343 38.5206 4.32495 37.9917 4.32495Z" fill="#65C466"/>
<path d="M7.38597 31.0671H1.64746V32.98H7.38597V31.0671Z" fill="#65C466"/>
<path d="M37.0355 31.0671H20.7764V32.98H37.0355V31.0671Z" fill="#65C466"/>
<path d="M57.1206 31.0671H53.2949V32.98H57.1206V31.0671Z" fill="#65C466"/>
<path d="M37.9913 8.11328H4.5166V10.0262H37.9913V8.11328Z" fill="#65C466"/>
<path d="M15.0389 34.8926H13.126V36.8055H15.0389V34.8926Z" fill="#65C466"/>
<path d="M47.5555 34.8926H45.6426V36.8055H47.5555V34.8926Z" fill="#65C466"/>
<path d="M17.9065 0.461914H4.5166V2.37479H17.9065V0.461914Z" fill="#65C466"/>
<path d="M2.60428 0.461914H0.691406V2.37479H2.60428V0.461914Z" fill="#65C466"/>
</svg>
