<svg width="49" height="49" viewBox="0 0 49 49" fill="none" xmlns="http://www.w3.org/2000/svg">
<g clip-path="url(#clip0)">
<path d="M24.2905 23.593C27.4131 23.593 29.9536 21.0524 29.9536 17.9297C29.9536 14.8069 27.4131 12.2664 24.2905 12.2664C21.1676 12.2664 18.627 14.8069 18.627 17.9297C18.627 21.0524 21.1676 23.593 24.2905 23.593ZM24.2905 15.098C25.8517 15.098 27.1219 16.3683 27.1219 17.9297C27.1219 19.4911 25.8517 20.7613 24.2905 20.7613C22.729 20.7613 21.4586 19.4911 21.4586 17.9297C21.4586 16.3683 22.729 15.098 24.2905 15.098Z" fill="#65C466"/>
<path d="M42.3046 32.9191H32.8288C37.2535 28.6956 41.2794 24.5558 41.2794 17.3449C41.2794 7.62932 33.9841 0.35498 24.2897 0.35498C14.5756 0.35498 7.29952 7.65094 7.29952 17.3449C7.29952 24.5558 11.3256 28.6956 15.7503 32.9191H6.27437L1.09668 48.682H47.4823L42.3046 32.9191ZM10.1312 17.3449C10.1312 9.14105 16.0857 3.18664 24.2897 3.18664C32.4935 3.18664 38.4478 9.14105 38.4478 17.3449C38.4478 26.5231 30.7007 29.7738 24.2897 37.6784C22.363 35.303 20.3025 33.3423 18.2988 31.4359C13.7355 27.094 10.1312 23.6643 10.1312 17.3449ZM6.1545 42.3579H16.3608V39.5263H7.0846L8.32477 35.7507H18.6262V35.6871C22.3872 39.4167 23.4047 41.286 24.2897 42.4006C25.1966 41.2583 26.1808 39.4279 29.9528 35.6873V35.7507H40.2543L41.4945 39.5263H32.2181V42.3579H42.4245L43.5716 45.8503H5.00739L6.1545 42.3579Z" fill="#65C466"/>
</g>
<defs>
<clipPath id="clip0">
<rect width="48.327" height="48.327" fill="white" transform="translate(0.125977 0.35498)"/>
</clipPath>
</defs>
</svg>
