<svg width="44" height="52" viewBox="0 0 44 52" fill="none" xmlns="http://www.w3.org/2000/svg">
<path d="M29.04 6.99164C28.5344 3.44855 25.4504 0.776367 21.8666 0.776367C19.5618 0.776367 17.3729 1.88855 16.012 3.7525C15.734 4.13264 15.8172 4.66587 16.1973 4.94386C16.5762 5.22084 17.1107 5.13867 17.3882 4.75804C18.4299 3.33266 20.1038 2.48148 21.8664 2.48148C24.6072 2.48148 26.9652 4.52401 27.3518 7.23215C27.4128 7.6575 27.7777 7.96445 28.195 7.96445C28.2347 7.96445 28.2757 7.96145 28.3164 7.95596C28.7825 7.88927 29.1064 7.45744 29.04 6.99164Z" fill="#65C466"/>
<path d="M41.3529 16.5351L38.7954 12.2725C38.6415 12.0155 38.364 11.8586 38.0643 11.8586H35.6134C35.1429 11.8586 34.761 12.2405 34.761 12.7111C34.761 13.1816 35.1429 13.5635 35.6134 13.5635H37.5818L39.1163 16.121H4.61677L6.15129 13.5635H7.05417C7.52472 13.5635 7.90661 13.1816 7.90661 12.7111C7.90661 12.2405 7.52472 11.8586 7.05417 11.8586H5.66876C5.36905 11.8586 5.09156 12.0155 4.93771 12.2725L2.38017 16.5351C2.22208 16.7989 2.21833 17.1268 2.36943 17.3941C2.52054 17.6613 2.80377 17.8266 3.11122 17.8266H40.6219C40.9293 17.8266 41.2123 17.6613 41.3637 17.3941C41.515 17.1268 41.511 16.7984 41.3529 16.5351Z" fill="#65C466"/>
<path d="M37.1035 8.6747C36.9841 8.48214 36.7935 8.34552 36.5732 8.29407L24.9516 5.57594C24.7316 5.52424 24.4998 5.5627 24.3075 5.68158C24.1157 5.80097 23.9788 5.99154 23.9274 6.21182L23.051 9.95822C22.9436 10.4165 23.2283 10.8751 23.6869 10.982C24.1452 11.0894 24.6042 10.8047 24.7111 10.3461L25.3935 7.43015L35.3546 9.76016L33.7894 16.4525C33.682 16.9108 33.9667 17.3693 34.4253 17.4762C34.491 17.4915 34.5562 17.4987 34.6206 17.4987C35.0077 17.4987 35.3581 17.2335 35.4493 16.8406L37.2089 9.31834C37.2608 9.0983 37.2228 8.86652 37.1035 8.6747Z" fill="#65C466"/>
<path d="M22.3176 10.6898L21.5409 4.11983C21.5144 3.8953 21.3998 3.69024 21.2219 3.55038C21.0441 3.41051 20.8196 3.34657 20.594 3.37305L6.33525 5.05843C5.86795 5.11387 5.53377 5.53747 5.58897 6.00526L6.88397 16.963C6.93542 17.3968 7.30332 17.7157 7.72966 17.7157C7.76288 17.7157 7.7971 17.7135 7.83106 17.7098C8.29811 17.6543 8.63229 17.2307 8.57735 16.7629L7.38225 6.65114L19.9479 5.16607L20.6243 10.8893C20.6797 11.3569 21.1013 11.689 21.5711 11.6361C22.0384 11.5811 22.3726 11.1573 22.3176 10.6898Z" fill="#65C466"/>
<path d="M29.0604 16.6499L27.3683 9.6132C27.3154 9.39367 27.1773 9.2036 26.9847 9.08546C26.7921 8.96833 26.5611 8.93161 26.3401 8.98406L12.6065 12.2869C12.1487 12.3968 11.867 12.8573 11.9769 13.3151L12.8226 16.8323C12.9325 17.2906 13.393 17.5725 13.8506 17.4619C14.3084 17.352 14.5901 16.8915 14.4802 16.4336L13.8336 13.7452L25.9095 10.8415L27.4023 17.049C27.4959 17.4399 27.8456 17.7022 28.2305 17.7022C28.2967 17.7022 28.3636 17.6944 28.4308 17.6782C28.8886 17.568 29.1703 17.1077 29.0604 16.6499Z" fill="#65C466"/>
<path d="M41.4749 16.9305C41.4515 16.4775 41.0773 16.1218 40.6233 16.1218H3.1126C2.65854 16.1218 2.2844 16.4772 2.26092 16.9305L0.55581 50.1786C0.543822 50.4118 0.628241 50.6401 0.789086 50.8094C0.950181 50.9785 1.17347 51.0747 1.40724 51.0747H42.3279C42.5614 51.0747 42.7849 50.9788 42.9468 50.8094C43.1074 50.6401 43.1918 50.4121 43.18 50.1786L41.4749 16.9305ZM2.30438 49.3696L3.92207 17.8267H39.8128L41.4305 49.3696H2.30438Z" fill="#65C466"/>
<path d="M28.2607 19.5317C26.8503 19.5317 25.7031 20.6789 25.7031 22.0893C25.7031 23.4997 26.8503 24.6468 28.2607 24.6468C29.6711 24.6468 30.8182 23.4997 30.8182 22.0893C30.8182 20.6789 29.6711 19.5317 28.2607 19.5317ZM28.2607 22.942C27.7904 22.942 27.4082 22.5596 27.4082 22.0895C27.4082 21.6195 27.7906 21.2371 28.2607 21.2371C28.7307 21.2371 29.1131 21.6195 29.1131 22.0895C29.1131 22.5596 28.7307 22.942 28.2607 22.942Z" fill="#65C466"/>
<path d="M15.4745 19.5317C14.0641 19.5317 12.917 20.6789 12.917 22.0893C12.917 23.4997 14.0641 24.6468 15.4745 24.6468C16.8849 24.6468 18.0321 23.4997 18.0321 22.0893C18.0321 20.6789 16.8849 19.5317 15.4745 19.5317ZM15.4745 22.942C15.0045 22.942 14.6221 22.5596 14.6221 22.0895C14.6221 21.6195 15.0045 21.2371 15.4745 21.2371C15.9446 21.2371 16.327 21.6195 16.327 22.0895C16.327 22.5596 15.9446 22.942 15.4745 22.942Z" fill="#65C466"/>
<path d="M28.2612 22.0891H28.1955C27.725 22.0891 27.3431 22.471 27.3431 22.9415C27.3431 23.0579 27.3661 23.1691 27.4088 23.2702V27.6303C27.4088 30.6856 24.9229 33.1717 21.8674 33.1717C18.8118 33.1717 16.326 30.6858 16.326 27.6303V22.9418C16.326 22.4712 15.9441 22.0894 15.4735 22.0894C15.003 22.0894 14.6211 22.4712 14.6211 22.9418V27.6305C14.6211 31.6262 17.8717 34.8768 21.8674 34.8768C25.863 34.8768 29.1136 31.6262 29.1136 27.6305V22.9418C29.1136 22.4712 28.7318 22.0891 28.2612 22.0891Z" fill="#65C466"/>
</svg>
