<svg width="58" height="58" viewBox="0 0 58 58" fill="none" xmlns="http://www.w3.org/2000/svg">
<path d="M28.605 57.6421C44.388 57.6421 57.1826 44.8475 57.1826 29.0645C57.1826 13.2815 44.388 0.486865 28.605 0.486863C12.822 0.486862 0.0273972 13.2815 0.0273958 29.0645C0.0273945 44.8474 12.8219 57.6421 28.605 57.6421ZM14.8413 27.6982C14.8888 27.6455 14.939 27.5952 14.9918 27.5478L35.4044 9.17642C36.257 8.43881 37.5461 8.53186 38.2837 9.38441C39.0008 10.2133 38.9354 11.4604 38.1356 12.2097L19.409 29.0644L38.1356 45.9191C38.9584 46.6898 39.0005 47.9816 38.2297 48.8043C37.4804 49.6041 36.2332 49.6696 35.4044 48.9524L14.9918 30.5811C14.1542 29.8266 14.0869 28.5358 14.8413 27.6982Z" fill="#65C466"/>
</svg>
