<svg width="53" height="62" viewBox="0 0 53 62" fill="none" xmlns="http://www.w3.org/2000/svg">
<path d="M48.2604 42.1981C44.8606 41.7894 41.5863 40.8565 38.5486 39.4308C37.062 38.7158 35.0982 38.9718 34.0353 39.8298L27.2249 43.7927C20.4484 39.0571 16.5239 34.062 13.5752 26.4169L18.8809 20.8856C20.2121 19.8415 20.8469 18.1588 20.5316 16.4706C19.864 13.1644 19.7317 9.76362 20.1405 6.36236C20.436 3.90527 18.6773 1.66604 16.2204 1.37072L6.02233 0.144959C3.56537 -0.150357 1.32614 1.60834 1.03082 4.0653C-2.35428 32.2284 17.8038 57.8942 45.9669 61.2793C48.4239 61.5746 50.6631 59.8159 50.9585 57.359L52.1808 47.1895C52.4759 44.7326 50.7172 42.4934 48.2604 42.1981Z" fill="#65C466"/>
</svg>
