<svg width="13" height="13" viewBox="0 0 13 13" fill="none" xmlns="http://www.w3.org/2000/svg">
<path d="M11.2373 8.27653C10.5026 8.27653 9.78126 8.16162 9.09766 7.93571C8.7627 7.82146 8.35091 7.92628 8.14648 8.13625L6.7972 9.15481C5.23241 8.31953 4.26854 7.35596 3.44466 5.80293L4.43326 4.48881C4.6901 4.23231 4.78223 3.85762 4.67185 3.50606C4.44498 2.81887 4.32973 2.09784 4.32973 1.36284C4.32976 0.831871 3.89779 0.399902 3.36685 0.399902H1.1631C0.632164 0.399902 0.200195 0.831871 0.200195 1.36281C0.200195 7.44875 5.15138 12.3999 11.2373 12.3999C11.7683 12.3999 12.2002 11.9679 12.2002 11.437V9.2394C12.2002 8.7085 11.7682 8.27653 11.2373 8.27653Z" fill="#959AA6"/>
</svg>
