<svg width="16" height="11" viewBox="0 0 16 11" fill="none" xmlns="http://www.w3.org/2000/svg">
<path d="M10.6055 5.58231L15.9995 8.99231V2.02832L10.6055 5.58231Z" fill="#959AA6"/>
<path d="M0 2.02832V8.99231L5.39399 5.58231L0 2.02832Z" fill="#959AA6"/>
<path d="M14.9993 0H0.999295C0.500296 0 0.104297 0.371999 0.0292969 0.850999L7.99928 6.10199L15.9693 0.850999C15.8943 0.371999 15.4983 0 14.9993 0Z" fill="#959AA6"/>
<path d="M9.68923 6.18606L8.27424 7.11806C8.19024 7.17306 8.09524 7.20006 7.99924 7.20006C7.90324 7.20006 7.80824 7.17306 7.72424 7.11806L6.30924 6.18506L0.03125 10.1561C0.10825 10.6311 0.502249 11.0001 0.999248 11.0001H14.9992C15.4962 11.0001 15.8902 10.6311 15.9672 10.1561L9.68923 6.18606Z" fill="#959AA6"/>
</svg>
