<svg width="13" height="10" viewBox="0 0 13 10" fill="none" xmlns="http://www.w3.org/2000/svg">
<path d="M8.68457 5.06585L12.9998 7.79385V2.22266L8.68457 5.06585Z" fill="#959AA6"/>
<path d="M0.200195 2.22266V7.79385L4.51539 5.06585L0.200195 2.22266Z" fill="#959AA6"/>
<path d="M12.1996 0.600098H0.999632C0.600432 0.600098 0.283633 0.897697 0.223633 1.2809L6.59962 5.48169L12.9756 1.2809C12.9156 0.897697 12.5988 0.600098 12.1996 0.600098Z" fill="#959AA6"/>
<path d="M7.95148 5.5489L6.81949 6.29449C6.75229 6.33849 6.67629 6.36009 6.59949 6.36009C6.52269 6.36009 6.44669 6.33849 6.37949 6.29449L5.24749 5.5481L0.225098 8.72489C0.286698 9.10489 0.601897 9.40009 0.999496 9.40009H12.1995C12.5971 9.40009 12.9123 9.10489 12.9739 8.72489L7.95148 5.5489Z" fill="#959AA6"/>
</svg>
